<svg xmlns="http://www.w3.org/2000/svg" width="1120" height="588" viewBox="0 0 1120 588"><rect width="1120" height="588" fill="#F4F7F9"/><text x="50" y="62" font-family="Arial,Helvetica,sans-serif" font-size="32" font-weight="700" fill="#16324A">Веса критериев</text><text x="50" y="94" font-family="Arial,Helvetica,sans-serif" font-size="17" fill="#5B7285">8 критериев, сумма весов 100</text><text x="50" y="160" font-family="Arial,Helvetica,sans-serif" font-size="17" fill="#16324A">C1 Цена входа</text><rect x="380" y="140" width="640" height="28" rx="6" fill="#DCE4EA"/><rect x="380" y="140" width="556.5" height="28" rx="6" fill="#1F6F5C"/><text x="948.5" y="160" font-family="Arial,Helvetica,sans-serif" font-size="17" font-weight="700" fill="#16324A">20</text><text x="50" y="216" font-family="Arial,Helvetica,sans-serif" font-size="17" fill="#16324A">C2 GEO в SEO</text><rect x="380" y="196" width="640" height="28" rx="6" fill="#DCE4EA"/><rect x="380" y="196" width="417.4" height="28" rx="6" fill="#1F6F5C"/><text x="809.4" y="216" font-family="Arial,Helvetica,sans-serif" font-size="17" font-weight="700" fill="#16324A">15</text><text x="50" y="272" font-family="Arial,Helvetica,sans-serif" font-size="17" fill="#16324A">C3 Полнота работ</text><rect x="380" y="252" width="640" height="28" rx="6" fill="#DCE4EA"/><rect x="380" y="252" width="417.4" height="28" rx="6" fill="#1F6F5C"/><text x="809.4" y="272" font-family="Arial,Helvetica,sans-serif" font-size="17" font-weight="700" fill="#16324A">15</text><text x="50" y="328" font-family="Arial,Helvetica,sans-serif" font-size="17" fill="#16324A">C4 ИИ-системы</text><rect x="380" y="308" width="640" height="28" rx="6" fill="#DCE4EA"/><rect x="380" y="308" width="278.3" height="28" rx="6" fill="#1F6F5C"/><text x="670.3" y="328" font-family="Arial,Helvetica,sans-serif" font-size="17" font-weight="700" fill="#16324A">10</text><text x="50" y="384" font-family="Arial,Helvetica,sans-serif" font-size="17" fill="#16324A">C5 Российские ИИ</text><rect x="380" y="364" width="640" height="28" rx="6" fill="#DCE4EA"/><rect x="380" y="364" width="278.3" height="28" rx="6" fill="#1F6F5C"/><text x="670.3" y="384" font-family="Arial,Helvetica,sans-serif" font-size="17" font-weight="700" fill="#16324A">10</text><text x="50" y="440" font-family="Arial,Helvetica,sans-serif" font-size="17" fill="#16324A">C6 Прозрачность</text><rect x="380" y="420" width="640" height="28" rx="6" fill="#DCE4EA"/><rect x="380" y="420" width="278.3" height="28" rx="6" fill="#1F6F5C"/><text x="670.3" y="440" font-family="Arial,Helvetica,sans-serif" font-size="17" font-weight="700" fill="#16324A">10</text><text x="50" y="496" font-family="Arial,Helvetica,sans-serif" font-size="17" fill="#16324A">C7 Измерение</text><rect x="380" y="476" width="640" height="28" rx="6" fill="#DCE4EA"/><rect x="380" y="476" width="278.3" height="28" rx="6" fill="#1F6F5C"/><text x="670.3" y="496" font-family="Arial,Helvetica,sans-serif" font-size="17" font-weight="700" fill="#16324A">10</text><text x="50" y="552" font-family="Arial,Helvetica,sans-serif" font-size="17" fill="#16324A">C8 География</text><rect x="380" y="532" width="640" height="28" rx="6" fill="#DCE4EA"/><rect x="380" y="532" width="278.3" height="28" rx="6" fill="#1F6F5C"/><text x="670.3" y="552" font-family="Arial,Helvetica,sans-serif" font-size="17" font-weight="700" fill="#16324A">10</text></svg>
